<?xml version="1.0"?>
<svg width="2122" height="2122" xmlns="http://www.w3.org/2000/svg" xmlns:svg="http://www.w3.org/2000/svg" enable-background="new 0 0 2122 2122" version="1.1" xml:space="preserve">
 <g class="layer">
  <title>Layer 1</title>
  <g id="svg_1">
   <path d="m1651.93,1450.55l0,0c0,-31.79 25.78,-57.56 57.57,-57.56l-310.14,0c-11.71,20.48 -35.6,31.14 -51.92,31.14l-0.3,-0.01c-2.2,0.35 -4.44,0.58 -6.74,0.58l-24.82,0c-3.28,7.78 -5.08,16.54 -5.08,25.85l0,0c0,31.79 20.48,57.56 52.27,57.56l346.73,0c-31.79,0 -57.57,-25.77 -57.57,-57.56z" fill="#ffff00" id="svg_2" transform="matrix(1 0 0 1 0 0)"/>
   <path d="m1651.93,1450.55l0,0c0,31.79 25.78,57.56 57.57,57.56l201.79,0l0,-8.47l-196.98,0c-27.12,0 -49.1,-21.98 -49.1,-49.09l0,0c0,-27.11 21.98,-49.09 49.1,-49.09l196.98,0l0,-8.47l-201.79,0c-31.79,0 -57.57,25.77 -57.57,57.56z" fill="#d3d300" id="svg_3" transform="matrix(1 0 0 1 0 0)"/>
   <path d="m1665.21,1450.55l0,0c0,27.11 21.98,49.09 49.1,49.09l196.99,0l0,-98.18l-196.99,0c-27.12,0 -49.1,21.98 -49.1,49.09z" fill="#FEE9CC" id="svg_4"/>
   <rect fill="#ffffaa" height="38.78" id="svg_5" width="159.65" x="1357.4" y="1431.16"/>
   <path d="m1696.77,1335.34c0,-31.79 25.77,-57.56 57.57,-57.56l-78.69,0l-100.47,0l-167.57,0c-4.51,0 -8.77,0.57 -12.8,1.55l5.11,36.62l151.17,0l0,38.78l-145.76,0l0.48,3.47c1.76,13.34 -0.88,24.71 -6.06,34.09c2.55,0.36 5.14,0.62 7.86,0.62l346.73,0c-31.79,0 -57.57,-25.77 -57.57,-57.57z" fill="#7fff00" id="svg_6" transform="matrix(1 0 0 1 0 0)"/>
   <path d="m1696.77,1335.34c0,31.8 25.77,57.57 57.57,57.57l216.13,0l0,-8.47l-211.33,0c-27.11,0 -49.09,-21.98 -49.09,-49.1c0,-27.11 21.98,-49.09 49.09,-49.09l211.33,0l0,-8.47l-194.35,0l-21.78,0c-31.79,0 -57.57,25.77 -57.57,57.56z" fill="#00bf5f" id="svg_7" transform="matrix(1 0 0 1 0 0)"/>
   <path d="m1710.05,1335.34c0,27.12 21.98,49.1 49.1,49.1l211.32,0l0,-98.19l-211.32,0c-27.12,0 -49.1,21.98 -49.1,49.09z" fill="#FEE9CC" id="svg_8" transform="matrix(1 0 0 1 0 0)"/>
   <polygon fill="#00bf5f" id="svg_9" points="1551.095,1315.953 1399.92,1315.953 1405.329,1354.735 1551.095,1354.735  " transform="matrix(1 0 0 1 0 0)"/>
   <path d="m1972.06,1508.19l-346.73,0c31.79,0 57.57,25.77 57.57,57.57c0,25.96 -17.2,47.89 -40.81,55.07l346.25,0c22.32,-7.18 35.99,-29.11 35.99,-55.07c0,-31.8 -20.48,-57.57 -52.27,-57.57z" fill="#ff0000" id="svg_10" transform="matrix(1 0 0 1 0 0)"/>
   <path d="m1682.9,1565.76c0,-31.8 -25.78,-57.57 -57.57,-57.57l-229.56,0l0,8.47l224.75,0c27.12,0 49.1,21.98 49.1,49.1c0,27.11 -21.98,49.09 -49.1,49.09l-224.75,0l0,5.97l246.32,0c23.61,-7.17 40.81,-29.1 40.81,-55.06z" fill="#bf0000" id="svg_11" transform="matrix(1 0 0 1 0 0)"/>
   <path d="m1669.62,1565.76c0,-27.12 -21.98,-49.1 -49.1,-49.1l-224.75,0l0,98.19l224.75,0c27.12,0 49.1,-21.98 49.1,-49.09z" fill="#FEE9CC" id="svg_12"/>
   <rect fill="#bf0000" height="38.78" id="svg_13" transform="matrix(1 0 0 1 0 0)" width="159.65" x="1827.49" y="1546.36"/>
   <path d="m588.24,1098.26l0.01,-0.04c17.96,-20.09 34.68,-26.62 47.17,-26.62l263.93,0c22.03,0 38.54,20.15 34.22,41.75l-70.14,311.35l452.15,0l24.82,0c2.3,0 4.54,-0.23 6.74,-0.58c10.13,-1.59 19.08,-6.7 25.59,-14.02c0.17,-0.19 0.35,-0.37 0.52,-0.57c0.58,-0.67 1.12,-1.38 1.66,-2.09c0.27,-0.36 0.54,-0.71 0.8,-1.08c0.46,-0.64 0.89,-1.3 1.31,-1.97c0.29,-0.48 0.59,-0.95 0.87,-1.44c0.36,-0.62 0.7,-1.25 1.02,-1.89c0.29,-0.57 0.57,-1.15 0.84,-1.74c0.27,-0.6 0.54,-1.22 0.79,-1.84c0.26,-0.65 0.5,-1.32 0.73,-1.99c0.2,-0.59 0.41,-1.18 0.59,-1.78c0.07,-0.24 0.12,-0.48 0.18,-0.72c0.15,-0.52 0.28,-1.03 0.4,-1.55c0.13,-0.56 0.28,-1.11 0.39,-1.68c0.17,-0.88 0.29,-1.78 0.41,-2.68c0.06,-0.47 0.15,-0.93 0.2,-1.41c0.13,-1.39 0.21,-2.8 0.21,-4.22l-96.49,-691.81c0,-5.97 -1.21,-11.66 -3.39,-16.84c-1.1,-2.59 -2.44,-5.04 -3.99,-7.35c-0.78,-1.15 -1.61,-2.26 -2.49,-3.33c-6.17,-7.47 -14.81,-12.84 -24.66,-14.86c-2.82,-0.57 -5.73,-0.88 -8.72,-0.88l-1083.8,0c-1.42,0 -2.82,0.08 -4.2,0.22c-0.52,0.05 -1.03,0.14 -1.54,0.21c-0.84,0.11 -1.69,0.22 -2.52,0.38c-0.63,0.13 -1.26,0.29 -1.88,0.44c-0.67,0.16 -1.35,0.32 -2.01,0.52c-0.7,0.2 -1.39,0.44 -2.08,0.68c-0.54,0.19 -1.08,0.38 -1.61,0.59c-0.75,0.3 -1.49,0.62 -2.22,0.95c-0.43,0.2 -0.85,0.41 -1.27,0.62c-0.79,0.39 -1.57,0.8 -2.32,1.24c-0.32,0.19 -0.63,0.38 -0.94,0.57c-0.82,0.51 -1.63,1.03 -2.41,1.59c-0.2,0.13 -0.38,0.28 -0.57,0.42c-0.87,0.63 -1.72,1.29 -2.54,1.99c-4.26,3.65 -7.8,8.12 -10.38,13.17l-0.05,0.1l0,0c-2.99,5.88 -4.71,12.52 -4.71,19.57l96.48,691.81c0,23.89 19.36,43.25 43.25,43.25l251.62,0l71.7,-309.95c1.26,-6.34 4.24,-11.95 8.33,-16.49z" fill="#4C5FA0" id="svg_14"/>
   <path d="m135.1,654.38c0.79,-0.55 1.6,-1.07 2.42,-1.58c0.31,-0.19 0.62,-0.38 0.93,-0.57c0.76,-0.44 1.54,-0.85 2.33,-1.24c0.42,-0.22 0.84,-0.42 1.27,-0.62c0.73,-0.34 1.47,-0.65 2.22,-0.95c0.53,-0.21 1.07,-0.4 1.61,-0.59c0.69,-0.24 1.38,-0.48 2.08,-0.69c0.66,-0.19 1.34,-0.35 2.01,-0.51c0.63,-0.15 1.25,-0.31 1.88,-0.44c0.83,-0.16 1.68,-0.27 2.52,-0.38c0.52,-0.07 1.02,-0.17 1.54,-0.21c1.38,-0.14 2.78,-0.22 4.2,-0.22l1083.8,0c2.99,0 5.9,0.31 8.72,0.88c9.85,2.02 18.49,7.39 24.66,14.86c0.88,1.07 1.71,2.18 2.49,3.33c1.55,2.3 2.89,4.76 3.98,7.35c2.19,5.18 3.4,10.86 3.4,16.84l96.49,691.81c0,1.42 -0.08,2.83 -0.22,4.22c-0.04,0.47 -0.13,0.94 -0.19,1.41c-0.12,0.9 -0.24,1.8 -0.41,2.68c-0.11,0.57 -0.26,1.12 -0.39,1.67c-0.12,0.52 -0.22,1.05 -0.36,1.56c-0.07,0.24 -0.15,0.48 -0.22,0.72c-0.18,0.6 -0.39,1.19 -0.59,1.78c-0.23,0.67 -0.47,1.34 -0.73,1.99c-0.25,0.62 -0.52,1.23 -0.79,1.84c-0.27,0.59 -0.55,1.16 -0.84,1.74c-0.33,0.64 -0.67,1.27 -1.02,1.89c-0.28,0.49 -0.58,0.96 -0.88,1.43c-0.42,0.67 -0.84,1.34 -1.3,1.98c-0.26,0.37 -0.53,0.72 -0.8,1.07c-0.54,0.71 -1.08,1.43 -1.66,2.1c-0.17,0.2 -0.35,0.38 -0.52,0.57c-6.51,7.32 -15.46,12.43 -25.59,14.02l0,0l0.3,0.01c16.31,0 40.21,-10.67 51.91,-31.15c0.14,-0.23 0.27,-0.46 0.4,-0.69c5.18,-9.38 7.82,-20.76 6.06,-34.09l-0.48,-3.47l-5.41,-38.78l-5.11,-36.62l-85.48,-612.94c0,-23.89 -19.37,-43.25 -43.26,-43.25l-1083.8,0c-16.03,0 -34.59,15.28 -50.27,33.66l0,0c0.82,-0.7 1.67,-1.36 2.54,-2c0.19,-0.13 0.37,-0.28 0.56,-0.42z" fill="#333E7A" id="svg_15"/>
   <path d="m899.35,1071.6l-263.93,0c-12.49,0 -29.21,6.53 -47.17,26.62l-0.01,0.04c6.44,-7.13 15.72,-11.56 25.89,-11.56l263.93,0c22.02,0 38.54,20.15 34.22,41.75l-114.32,492.37l185.91,0c-12.38,-19.39 -34.01,-32.3 -58.73,-32.3l-98.62,0l36.9,-163.82l70.15,-311.35c4.32,-21.6 -12.19,-41.75 -34.22,-41.75z" fill="#333E7A" id="svg_16"/>
   <path d="m797.96,1620.82l114.32,-492.37c4.32,-21.6 -12.2,-41.75 -34.22,-41.75l-263.93,0c-10.18,0 -19.45,4.43 -25.89,11.57c-4.09,4.53 -7.07,10.15 -8.33,16.48l-71.7,309.95l-45.36,196.13l335.11,0l0,-0.01z" fill="#5B71AD" id="svg_17"/>
   <path d="m1710.42,1065.68c-0.01,0.15 -0.03,0.28 -0.05,0.42c-0.13,1.37 -1.35,2.38 -2.73,2.24c-1.34,-0.13 -2.32,-1.32 -2.23,-2.66l-49.25,0c0.08,0.49 0.18,0.97 0.26,1.46c0.22,1.36 -0.7,2.64 -2.06,2.86c-1.36,0.23 -2.64,-0.69 -2.86,-2.05c-0.13,-0.77 -0.28,-1.5 -0.41,-2.26l-111.76,0l35.85,212.09l100.47,0l78.69,0l21.78,0l35.85,-212.09l-101.55,0l0,-0.01z" fill="#E27B6D" id="svg_18"/>
   <path d="m1557.09,1098.11l237.13,0c1.37,0 2.49,-1.11 2.49,-2.49c0,-1.38 -1.12,-2.5 -2.49,-2.5l-237.13,0c-1.38,0 -2.49,1.12 -2.49,2.5c0,1.38 1.11,2.49 2.49,2.49z" id="svg_19"/>
   <path d="m1796.71,1108.83c0,-1.38 -1.12,-2.5 -2.49,-2.5l-237.13,0c-1.38,0 -2.49,1.12 -2.49,2.5c0,1.37 1.11,2.49 2.49,2.49l237.13,0c1.37,0 2.49,-1.12 2.49,-2.49z" id="svg_20"/>
   <path d="m1616.25,949.26c-5.58,0.8 -16.22,1.04 -28.66,1.05c-19.89,0 -44.12,-0.67 -57.41,-1.02l0,0c-1.37,-0.04 -2.46,-1.18 -2.42,-2.56c0.03,-1.38 1.18,-2.47 2.56,-2.43c13.28,0.35 37.49,1.02 57.27,1.02c12.31,0 23.01,-0.27 27.94,-0.99c-5.2,-11.92 -10.75,-23.32 -16.6,-34.27c-0.09,0.01 -0.17,0.06 -0.26,0.06c-22.08,1 -44.18,1.5 -66.29,1.5c-17.5,0 -35,-0.31 -52.48,-0.94l0,0c-1.38,-0.05 -2.46,-1.21 -2.41,-2.58c0.05,-1.38 1.21,-2.45 2.58,-2.41c17.43,0.63 34.87,0.94 52.31,0.94c21.25,0 42.5,-0.49 63.73,-1.41c-0.1,-0.23 -0.14,-0.47 -0.17,-0.73c-7.14,-12.97 -14.69,-25.31 -22.54,-37.17c-0.15,0.03 -0.28,0.1 -0.44,0.1c-34.49,1.35 -67.19,3.69 -101.26,3.69c-6.44,0 -12.92,-0.08 -19.47,-0.27l0,0c-1.38,-0.04 -2.46,-1.19 -2.42,-2.57c0.04,-1.37 1.19,-2.46 2.57,-2.42c6.49,0.19 12.93,0.27 19.32,0.27c33,0 64.88,-2.21 98.53,-3.57c-8.31,-12.26 -16.93,-24.01 -25.78,-35.35c-0.34,0.23 -0.72,0.41 -1.16,0.44c-29.92,2.48 -60.9,4.32 -90.9,5.4l0,0c-1.38,0.05 -2.53,-1.03 -2.58,-2.4s1.02,-2.54 2.4,-2.59c29.3,-1.05 59.53,-2.84 88.78,-5.24c-10.18,-12.87 -20.61,-25.28 -31.15,-37.39c-13.22,2.33 -26.3,3.78 -39.86,3.78c-8.35,0 -16.88,-0.54 -25.73,-1.75l0,0.01c-1.37,-0.19 -2.33,-1.45 -2.14,-2.81c0.19,-1.37 1.44,-2.32 2.81,-2.14c8.63,1.18 16.93,1.7 25.06,1.7c12.19,0 24.02,-1.23 36,-3.21c-13.27,-15.16 -26.65,-29.92 -39.81,-44.69l0,0c-0.92,-1.03 -0.83,-2.61 0.2,-3.53c1.03,-0.91 2.61,-0.82 3.52,0.21c9.18,10.29 18.48,20.61 27.8,31.07c-0.93,-10.71 -1.86,-21.42 -2.78,-32.14l0,0c-0.12,-1.37 0.9,-2.58 2.27,-2.7c1.37,-0.12 2.58,0.9 2.7,2.27c1.08,12.53 2.17,25.06 3.25,37.59c0.03,0.35 -0.01,0.68 -0.11,0.99c11.46,12.96 22.91,26.2 34.12,39.96c0.08,-10.45 0.28,-20.88 0.28,-31.52c0,-11.45 -0.27,-23.16 -1.29,-35.44l0,0c-0.11,-1.37 0.91,-2.58 2.28,-2.69c1.37,-0.12 2.58,0.9 2.69,2.28c1.04,12.46 1.31,24.32 1.31,35.85c0,12.8 -0.33,25.21 -0.34,37.62c8.81,11.02 17.46,22.4 25.82,34.27c0.81,-25.58 1.69,-53.31 2.48,-78.42l0,0c0.05,-1.37 1.2,-2.46 2.57,-2.41c1.38,0.04 2.46,1.19 2.42,2.57c-0.87,27.32 -1.83,57.78 -2.7,85.16c8.3,12.13 16.28,24.77 23.85,38.06c1.95,-24.43 3.43,-48.9 4.27,-73.39l0,0c0.05,-1.37 1.2,-2.45 2.58,-2.4c1.38,0.04 2.45,1.2 2.41,2.57c-0.93,27.08 -2.55,54.14 -4.83,81.14c6.25,11.43 12.17,23.36 17.73,35.83c2.26,-13.74 4.37,-32.14 4.95,-43.94l0,0c0.06,-1.37 1.23,-2.43 2.61,-2.37c1.37,0.07 2.44,1.24 2.37,2.62c-0.71,14.37 -3.55,37.73 -6.31,51.85c0,0.03 -0.02,0.04 -0.03,0.07c1.41,3.32 2.81,6.67 4.16,10.07c0.55,-0.6 1.12,-1.18 1.64,-1.83c8.3,-10.47 8.97,-24.96 8.23,-38.29c-2.36,-42.61 -15.58,-84.58 -38.07,-120.85c-16.86,-27.18 -39.84,-51.84 -69.5,-63.83c-34.22,-13.84 -81.19,-10.79 -85.48,32.12c-4.44,44.41 -10.38,103.56 13.38,143.14c22.98,38.29 70.44,53.79 114.61,60.35c17.49,2.6 37.89,3.17 51.25,-7.16c-1.64,-4.18 -3.32,-8.3 -5.05,-12.36c-0.33,0.28 -0.72,0.5 -1.18,0.56z" fill="#008E60" id="svg_21"/>
   <path d="m1670.61,823.62c3.86,2.83 7.37,4.42 10.6,5.13c-0.11,-12.98 -0.25,-25.97 -0.43,-38.93c-18.59,-14.84 -39.26,-40.2 -55.57,-59.56l0,0c-0.89,-1.06 -0.76,-2.63 0.3,-3.52c1.05,-0.88 2.63,-0.75 3.51,0.3c15.35,18.25 34.54,41.59 51.67,56.16c-0.23,-16.44 -0.51,-32.83 -0.83,-49.09c-0.48,-0.11 -0.93,-0.32 -1.28,-0.71c-22.28,-24.66 -46.09,-52.64 -66.57,-80.78l0,0c-0.81,-1.11 -0.57,-2.68 0.55,-3.49c1.11,-0.81 2.67,-0.56 3.48,0.55c19.55,26.86 42.22,53.63 63.67,77.51c-0.07,-3.23 -0.14,-6.46 -0.21,-9.68c-0.15,-0.44 -0.13,-0.9 -0.03,-1.35c-0.33,-14.62 -0.7,-29.13 -1.1,-43.46c-0.76,-0.04 -1.49,-0.38 -1.95,-1.05c-17.82,-26.42 -29.18,-43.2 -44.83,-65.94l0,0c-0.78,-1.13 -0.5,-2.69 0.64,-3.47c1.13,-0.78 2.69,-0.49 3.47,0.64c14.92,21.68 26.02,38.06 42.45,62.4c-0.95,-32.17 -2.1,-63.43 -3.44,-93.12l0,0c-0.07,-1.37 1,-2.54 2.38,-2.6c1.37,-0.06 2.54,1 2.6,2.38c1.12,24.58 2.1,50.24 2.94,76.6c18.23,-20.51 30.7,-36.64 45.7,-52.6c0.94,-1 2.52,-1.05 3.53,-0.1c1,0.94 1.05,2.52 0.1,3.52c-15.71,16.71 -28.76,33.84 -49.11,56.42c0.56,18.07 1.06,36.43 1.49,55.02c21.24,-20.77 38.6,-44.4 57.07,-66.04c0.9,-1.05 2.47,-1.17 3.52,-0.28c1.05,0.9 1.17,2.47 0.28,3.52c-19.25,22.53 -37.52,47.7 -60.72,69.63c0.35,15.61 0.65,31.34 0.91,47.16c17.07,-15.28 39.59,-42.51 53.54,-58.77c0.9,-1.05 2.47,-1.17 3.52,-0.27c1.04,0.9 1.16,2.47 0.26,3.52c-14.82,17.24 -39.21,46.89 -57.21,62.02c0.17,11.52 0.33,23.06 0.46,34.62c7.63,-5.04 14.96,-10.54 21.82,-16.59c1.03,-0.91 2.61,-0.82 3.52,0.22c0.91,1.03 0.82,2.61 -0.22,3.52c-7.73,6.82 -15.99,13.05 -24.67,18.61l0,0c-0.12,0.08 -0.26,0.1 -0.38,0.15c0.06,5.76 0.11,11.51 0.16,17.27c12.3,-1.03 20.18,-16.35 27.91,-29.51c24.03,-40.89 38.35,-87.54 40.91,-134.93c1.15,-21.3 -0.16,-43.39 -9.43,-62.6c-9.26,-19.21 -27.87,-35.03 -49.18,-35.95c-16.31,-0.7 -31.87,7.15 -44.79,17.13c-29.23,22.56 -48.85,57.79 -50.56,94.67c-1.4,30.13 8.77,59.9 23.85,86.02c11.45,19.84 26.93,45.97 45.7,59.7z" fill="#008E60" id="svg_22"/>
   <path d="m1908.77,812.4c-5.92,-14.87 -14.08,-29.57 -27.24,-38.68c-18.17,-12.59 -43.21,-12.06 -63.34,-2.92c-20.13,9.14 -35.98,25.73 -48.97,43.62c-30.1,41.44 -55.57,102.71 -47.82,155.03c1.06,7.11 3.27,12.6 6.39,16.73c2.11,-4.47 4.32,-8.9 6.68,-13.25c-0.67,-0.25 -1.24,-0.75 -1.5,-1.48c-3.9,-11.03 -6.6,-16.09 -10.62,-36.68l0,0c-0.27,-1.35 0.61,-2.66 1.96,-2.92c1.36,-0.27 2.67,0.61 2.93,1.97c3.81,19.39 6.19,24.16 9.87,34.38c6.04,-10.67 12.79,-20.98 20.15,-30.89c0,-0.02 -0.02,-0.03 -0.02,-0.05c-1.73,-17.14 -2.01,-37.02 -2.01,-57.89c0,-10.44 0.07,-21.12 0.07,-31.83l0,0c0,-1.37 1.12,-2.49 2.5,-2.49c1.37,0 2.49,1.12 2.49,2.49c0,10.73 -0.07,21.42 -0.07,31.83c0,18.68 0.29,36.37 1.56,51.98c1.5,-1.93 3.01,-3.86 4.55,-5.75c7.99,-9.79 16.2,-19.42 24.55,-28.93c-0.07,-0.24 -0.15,-0.49 -0.15,-0.75c0,-54.87 4.28,-71.6 6.88,-104.24l0,0c0.11,-1.38 1.31,-2.4 2.69,-2.29c1.37,0.11 2.4,1.31 2.29,2.68c-2.57,32.05 -6.6,48.34 -6.85,99.06c9.5,-10.66 19.21,-21.14 29.14,-31.41c0.04,-0.04 0.07,-0.07 0.1,-0.1c2.15,-2.22 4.33,-4.4 6.5,-6.6c-0.04,-0.22 -0.09,-0.44 -0.07,-0.68c2.8,-25.69 8.27,-50 10.66,-80.47l0,0c0.11,-1.38 1.31,-2.4 2.68,-2.29c1.38,0.1 2.4,1.31 2.3,2.68c-2.26,28.62 -7.13,51.72 -10.01,75.11c16.04,-16.05 32.57,-31.59 49.6,-46.51l0,0c1.04,-0.91 2.61,-0.81 3.52,0.23c0.91,1.03 0.81,2.61 -0.23,3.52c-19.64,17.21 -38.62,35.26 -56.93,53.97c25.37,-1.04 51,-4.23 76.56,-5.81c1.37,-0.08 2.55,0.97 2.64,2.34c0.08,1.38 -0.96,2.56 -2.34,2.64c-27.09,1.67 -54.58,5.3 -82.02,6.08c-11.85,12.27 -23.35,24.87 -34.58,37.7c34.14,-1.58 79.75,-3.88 116.12,-8.7c1.37,-0.19 2.62,0.77 2.8,2.14c0.18,1.36 -0.78,2.62 -2.14,2.8c-38.41,5.09 -86.71,7.37 -121.3,8.96c-6.27,7.27 -12.48,14.59 -18.54,22.02c-3.25,3.99 -6.37,8.06 -9.42,12.18c34.49,-0.5 68.96,-2.23 103.32,-5.25c1.37,-0.12 2.58,0.9 2.7,2.27c0.12,1.37 -0.89,2.58 -2.26,2.7c-35.49,3.11 -71.09,4.89 -106.71,5.34l0,0c-0.22,0 -0.42,-0.07 -0.63,-0.12c-6.28,8.88 -12.06,18.06 -17.27,27.52c7.42,1.08 15.19,1.46 23.48,1.46c11.22,0 23.35,-0.62 36.66,-0.77c1.38,-0.01 2.51,1.09 2.52,2.47c0.02,1.38 -1.09,2.51 -2.47,2.52c-13.19,0.15 -25.31,0.77 -36.71,0.77c-9.08,0 -17.69,-0.42 -26.01,-1.78c-2.07,3.94 -4.04,7.93 -5.9,11.96c24.88,21.28 86.08,-13.23 110.19,-24.41c25.25,-11.72 50.76,-26.32 65.25,-50.09c18.57,-30.44 15.01,-69.99 1.83,-103.12z" fill="#008E60" id="svg_23"/>
   <path d="m1654.36,1070c1.36,-0.22 2.28,-1.5 2.06,-2.86c-0.08,-0.49 -0.18,-0.97 -0.26,-1.46c-6.75,-40.48 -16.99,-76.19 -29.74,-108.26c-1.35,-3.41 -2.74,-6.76 -4.15,-10.08c0.01,-0.02 0.02,-0.04 0.03,-0.07c2.76,-14.12 5.6,-37.48 6.31,-51.85c0.06,-1.38 -1,-2.55 -2.37,-2.62c-1.38,-0.06 -2.55,1 -2.62,2.37l0,0c-0.57,11.8 -2.68,30.2 -4.94,43.95c-5.56,-12.48 -11.49,-24.41 -17.73,-35.84c2.27,-27 3.89,-54.06 4.82,-81.13c0.05,-1.38 -1.03,-2.54 -2.41,-2.58c-1.37,-0.05 -2.53,1.03 -2.57,2.4l0,0c-0.84,24.49 -2.33,48.96 -4.27,73.39c-7.58,-13.28 -15.56,-25.93 -23.85,-38.06c0.86,-27.38 1.83,-57.84 2.69,-85.16c0.05,-1.38 -1.03,-2.53 -2.41,-2.57c-1.38,-0.04 -2.53,1.04 -2.57,2.41l0,0c-0.8,25.11 -1.67,52.84 -2.48,78.42c-8.37,-11.87 -17.01,-23.25 -25.83,-34.27c0.02,-12.41 0.35,-24.82 0.35,-37.62c0,-11.53 -0.28,-23.38 -1.31,-35.85c-0.12,-1.37 -1.32,-2.39 -2.69,-2.28c-1.38,0.11 -2.4,1.32 -2.28,2.69l0,0c1.02,12.28 1.29,23.99 1.29,35.44c0,10.65 -0.2,21.07 -0.29,31.52c-11.21,-13.76 -22.65,-27 -34.12,-39.96c0.11,-0.31 0.15,-0.64 0.12,-0.99c-1.09,-12.53 -2.17,-25.06 -3.26,-37.59c-0.11,-1.37 -1.32,-2.38 -2.7,-2.27c-1.37,0.12 -2.39,1.33 -2.27,2.71l0,0c0.93,10.71 1.86,21.42 2.79,32.14c-9.32,-10.47 -18.63,-20.78 -27.8,-31.08c-0.92,-1.03 -2.49,-1.12 -3.52,-0.21c-1.03,0.92 -1.12,2.5 -0.2,3.53l0,0c13.15,14.77 26.53,29.54 39.8,44.69c-11.98,1.98 -23.8,3.21 -35.99,3.21c-8.13,0 -16.43,-0.52 -25.07,-1.7c-1.36,-0.18 -2.62,0.77 -2.8,2.14c-0.19,1.36 0.77,2.62 2.13,2.81l0,0c8.86,1.2 17.39,1.74 25.74,1.74c13.56,0 26.63,-1.45 39.86,-3.78c10.53,12.11 20.97,24.52 31.15,37.4c-29.26,2.39 -59.49,4.18 -88.78,5.24c-1.38,0.04 -2.46,1.2 -2.41,2.58s1.21,2.45 2.59,2.4l0,0c30,-1.08 60.98,-2.92 90.9,-5.4c0.44,-0.03 0.82,-0.21 1.16,-0.44c8.84,11.34 17.47,23.09 25.77,35.35c-33.65,1.36 -65.53,3.57 -98.53,3.57c-6.39,0 -12.82,-0.08 -19.32,-0.27c-1.38,-0.04 -2.52,1.05 -2.56,2.42c-0.04,1.38 1.04,2.53 2.42,2.57l0,0c6.55,0.19 13.03,0.27 19.46,0.27c34.08,0 66.78,-2.34 101.27,-3.68c0.15,-0.01 0.29,-0.08 0.43,-0.11c7.86,11.86 15.41,24.2 22.55,37.18c0.02,0.25 0.07,0.49 0.16,0.72c-21.23,0.92 -42.47,1.41 -63.72,1.41c-17.44,0 -34.88,-0.31 -52.31,-0.93c-1.38,-0.05 -2.53,1.02 -2.58,2.4c-0.05,1.38 1.03,2.53 2.4,2.58l0,0c17.49,0.63 34.99,0.94 52.49,0.94c22.1,0 44.2,-0.5 66.29,-1.5c0.09,0 0.17,-0.05 0.26,-0.06c5.84,10.95 11.39,22.35 16.6,34.27c-4.93,0.72 -15.63,1 -27.94,0.99c-19.79,0 -44,-0.67 -57.28,-1.02c-1.37,-0.03 -2.52,1.05 -2.56,2.43c-0.03,1.38 1.05,2.52 2.43,2.56l0,0c13.28,0.35 37.52,1.02 57.41,1.02c12.44,-0.01 23.08,-0.25 28.66,-1.05c0.46,-0.06 0.84,-0.28 1.18,-0.55c1.73,4.05 3.41,8.18 5.05,12.36c12.2,31.07 22.03,65.58 28.61,104.62c0.13,0.76 0.27,1.49 0.4,2.26c0.22,1.36 1.5,2.28 2.86,2.05z" id="svg_24"/>
   <path d="m1707.64,1068.34c1.38,0.14 2.6,-0.87 2.73,-2.24c0.02,-0.14 0.04,-0.28 0.05,-0.42c2.67,-26.56 10.07,-51.89 21.08,-75.66c1.87,-4.03 3.83,-8.02 5.9,-11.96c8.33,1.36 16.94,1.78 26.01,1.78c11.4,0 23.53,-0.62 36.72,-0.77c1.38,-0.01 2.48,-1.14 2.46,-2.52c-0.01,-1.38 -1.14,-2.48 -2.52,-2.47c-13.31,0.15 -25.44,0.77 -36.66,0.77c-8.29,0 -16.06,-0.38 -23.48,-1.47c5.21,-9.45 10.99,-18.63 17.28,-27.51c0.2,0.05 0.4,0.12 0.62,0.12l0,0c35.62,-0.45 71.22,-2.23 106.71,-5.34c1.37,-0.12 2.39,-1.33 2.27,-2.7c-0.12,-1.37 -1.33,-2.39 -2.71,-2.27c-34.36,3.01 -68.83,4.75 -103.31,5.25c3.04,-4.12 6.16,-8.19 9.41,-12.18c6.06,-7.43 12.27,-14.75 18.55,-22.02c34.58,-1.59 82.88,-3.87 121.29,-8.96c1.37,-0.18 2.33,-1.43 2.14,-2.8c-0.18,-1.37 -1.43,-2.33 -2.8,-2.15c-36.37,4.83 -81.97,7.13 -116.11,8.71c11.22,-12.83 22.73,-25.43 34.57,-37.7c27.44,-0.78 54.93,-4.41 82.03,-6.08c1.37,-0.08 2.42,-1.26 2.33,-2.64c-0.08,-1.37 -1.27,-2.42 -2.64,-2.34c-25.55,1.58 -51.19,4.77 -76.55,5.81c18.31,-18.71 37.28,-36.76 56.92,-53.97c1.04,-0.91 1.14,-2.49 0.23,-3.52c-0.9,-1.04 -2.48,-1.14 -3.52,-0.23l0,0c-17.02,14.92 -33.56,30.46 -49.6,46.51c2.89,-23.39 7.75,-46.49 10.01,-75.11c0.11,-1.37 -0.92,-2.57 -2.29,-2.68c-1.38,-0.11 -2.58,0.91 -2.68,2.29l0,0c-2.4,30.47 -7.87,54.78 -10.66,80.47c-0.03,0.24 0.02,0.46 0.06,0.68c-2.17,2.2 -4.35,4.38 -6.5,6.6c-0.03,0.03 -0.06,0.06 -0.09,0.1c-9.93,10.27 -19.65,20.75 -29.14,31.41c0.24,-50.72 4.28,-67.02 6.84,-99.06c0.11,-1.37 -0.92,-2.57 -2.29,-2.68c-1.37,-0.11 -2.57,0.91 -2.68,2.29l0,0c-2.61,32.64 -6.89,49.37 -6.89,104.24c0,0.26 0.08,0.51 0.16,0.75c-8.35,9.51 -16.56,19.14 -24.55,28.93c-1.55,1.89 -3.05,3.82 -4.55,5.75c-1.28,-15.61 -1.57,-33.3 -1.57,-51.98c0,-10.41 0.07,-21.1 0.07,-31.83c0,-1.37 -1.11,-2.49 -2.49,-2.49c-1.38,0 -2.5,1.12 -2.5,2.49l0,0c0,10.71 -0.07,21.39 -0.07,31.83c0,20.87 0.28,40.75 2.01,57.89c0.01,0.02 0.02,0.03 0.02,0.05c-7.36,9.91 -14.11,20.22 -20.15,30.89c-3.68,-10.22 -6.05,-14.99 -9.86,-34.38c-0.27,-1.36 -1.58,-2.24 -2.93,-1.97c-1.35,0.26 -2.24,1.57 -1.97,2.92l0,0c4.02,20.59 6.72,25.65 10.63,36.68c0.25,0.73 0.82,1.23 1.49,1.48c-2.35,4.35 -4.56,8.78 -6.67,13.25c-11.74,24.86 -19.63,51.45 -22.39,79.43c0,0.03 0.01,0.05 0.01,0.08c-0.1,1.34 0.88,2.52 2.22,2.65z" id="svg_25"/>
   <path d="m1686.42,811.68l0,0c8.69,-5.56 16.95,-11.79 24.68,-18.62c1.03,-0.91 1.13,-2.48 0.22,-3.52c-0.92,-1.03 -2.49,-1.13 -3.52,-0.22c-6.86,6.06 -14.19,11.56 -21.83,16.6c-0.13,-11.56 -0.28,-23.11 -0.46,-34.63c18,-15.13 42.4,-44.77 57.22,-62.02c0.9,-1.04 0.78,-2.62 -0.27,-3.51c-1.04,-0.9 -2.62,-0.78 -3.51,0.26c-13.96,16.27 -36.48,43.5 -53.55,58.77c-0.25,-15.81 -0.56,-31.55 -0.9,-47.15c23.2,-21.94 41.46,-47.1 60.71,-69.63c0.89,-1.05 0.77,-2.63 -0.28,-3.52c-1.04,-0.9 -2.62,-0.77 -3.51,0.28c-18.47,21.63 -35.84,45.27 -57.07,66.04c-0.43,-18.59 -0.93,-36.95 -1.49,-55.02c20.35,-22.58 33.39,-39.72 49.11,-56.42c0.94,-1.01 0.9,-2.58 -0.11,-3.53c-1,-0.94 -2.58,-0.89 -3.52,0.11c-15.01,15.95 -27.47,32.08 -45.71,52.59c-0.84,-26.36 -1.82,-52.01 -2.93,-76.6c-0.07,-1.37 -1.23,-2.44 -2.61,-2.38c-1.38,0.07 -2.44,1.23 -2.38,2.61l0,0c1.35,29.69 2.49,60.95 3.44,93.12c-16.43,-24.35 -27.52,-40.72 -42.45,-62.4c-0.78,-1.14 -2.33,-1.42 -3.47,-0.64c-1.13,0.78 -1.42,2.33 -0.64,3.47l0,0c15.65,22.73 27.02,39.51 44.84,65.93c0.45,0.68 1.19,1.02 1.94,1.06c0.41,14.33 0.78,28.83 1.11,43.46c-0.11,0.45 -0.12,0.91 0.02,1.35c0.08,3.22 0.15,6.44 0.21,9.67c-21.45,-23.87 -44.12,-50.65 -63.66,-77.5c-0.81,-1.12 -2.37,-1.36 -3.49,-0.55c-1.11,0.81 -1.36,2.37 -0.55,3.49l0,0c20.49,28.13 44.3,56.11 66.57,80.78c0.35,0.38 0.81,0.59 1.28,0.7c0.33,16.27 0.61,32.66 0.84,49.1c-17.14,-14.58 -36.32,-37.92 -51.67,-56.16c-0.89,-1.05 -2.46,-1.19 -3.52,-0.3c-1.05,0.89 -1.19,2.46 -0.3,3.51l0,0c16.31,19.36 36.98,44.73 55.58,59.56c0.17,12.97 0.31,25.95 0.43,38.93c0.21,24.64 0.33,49.25 0.33,73.57c0,55.68 -0.57,109.9 -1.69,159.77c-0.03,1.37 1.06,2.52 2.44,2.55c1.38,0.03 2.52,-1.06 2.55,-2.44c1.12,-49.92 1.69,-104.17 1.69,-159.88c0,-24.21 -0.12,-48.7 -0.33,-73.22c-0.05,-5.76 -0.1,-11.51 -0.17,-17.27c0.13,-0.06 0.26,-0.07 0.38,-0.15z" id="svg_26"/>
   <path d="m2012.72,1620.82l-24.38,0l-346.25,0l-246.32,0l-411.9,0l-185.91,0l-335.11,0l-294.12,0c-1.38,0 -2.49,1.12 -2.49,2.5c0,1.38 1.11,2.49 2.49,2.49l1843.99,0c1.38,0 2.49,-1.11 2.49,-2.49c0,-1.38 -1.11,-2.5 -2.49,-2.5z" id="svg_27"/>
  </g>
 </g>
</svg>