<?xml version="1.0" encoding="utf-8"?>
<!-- Generator: Adobe Illustrator 27.5.0, SVG Export Plug-In . SVG Version: 6.00 Build 0)  -->
<svg version="1.1" id="Capa_1" xmlns="http://www.w3.org/2000/svg" xmlns:xlink="http://www.w3.org/1999/xlink" x="0px" y="0px"
	 viewBox="0 0 2122 2122" style="enable-background:new 0 0 2122 2122;" xml:space="preserve">
<g>
	<path style="fill:#9F3D74;" d="M1651.934,1450.55L1651.934,1450.55c0-31.792,25.772-57.564,57.564-57.564h-310.142
		c-11.708,20.481-35.6,31.142-51.915,31.142l-0.302-0.006c-2.203,0.346-4.444,0.578-6.744,0.578h-24.817
		c-3.281,7.78-5.083,16.543-5.083,25.85l0,0c0,31.792,20.484,57.564,52.276,57.564h346.727
		C1677.707,1508.114,1651.934,1482.341,1651.934,1450.55z"/>
	<path style="fill:#BE5993;" d="M1651.934,1450.55L1651.934,1450.55c0,31.792,25.772,57.564,57.564,57.564h201.796v-8.471h-196.987
		c-27.114,0-49.094-21.98-49.094-49.093l0,0c0-27.113,21.98-49.093,49.094-49.093h196.987v-8.471h-201.796
		C1677.707,1392.986,1651.934,1418.758,1651.934,1450.55z"/>
	<path style="fill:#FEE9CC;" d="M1665.214,1450.55L1665.214,1450.55c0,27.113,21.98,49.093,49.094,49.093h196.987v-98.186h-196.987
		C1687.193,1401.457,1665.214,1423.436,1665.214,1450.55z"/>
	<rect x="1357.397" y="1431.158" style="fill:#CA6194;" width="159.649" height="38.783"/>
	<path style="fill:#9C599F;" d="M1696.773,1335.344c0-31.792,25.772-57.564,57.563-57.564h-78.683h-100.471h-167.572
		c-4.513,0-8.767,0.572-12.798,1.554l5.107,36.618h151.175v38.783h-145.767l0.484,3.467c1.76,13.333-0.883,24.713-6.06,34.089
		c2.544,0.364,5.143,0.617,7.858,0.617h346.726C1722.545,1392.908,1696.773,1367.136,1696.773,1335.344z"/>
	<path style="fill:#BA82B7;" d="M1696.773,1335.344c0,31.792,25.772,57.564,57.563,57.564h216.131v-8.471h-211.322
		c-27.113,0-49.093-21.979-49.093-49.093c0-27.113,21.979-49.093,49.093-49.093h211.322v-8.471h-194.344h-21.787
		C1722.545,1277.78,1696.773,1303.552,1696.773,1335.344z"/>
	<path style="fill:#FEE9CC;" d="M1710.053,1335.344c0,27.114,21.979,49.093,49.093,49.093h211.322v-98.186h-211.322
		C1732.032,1286.251,1710.053,1308.231,1710.053,1335.344z"/>
	<polygon style="fill:#AE71AD;" points="1551.095,1315.953 1399.92,1315.953 1405.329,1354.735 1551.095,1354.735 	"/>
	<path style="fill:#F07D46;" d="M1972.058,1508.192h-346.726c31.792,0,57.564,25.772,57.564,57.564
		c0,25.961-17.194,47.893-40.81,55.069h346.255c22.323-7.176,35.993-29.108,35.993-55.069
		C2024.334,1533.963,2003.85,1508.192,1972.058,1508.192z"/>
	<path style="fill:#F3954A;" d="M1682.896,1565.755c0-31.792-25.772-57.564-57.564-57.564H1395.77v8.47h224.753
		c27.113,0,49.093,21.98,49.093,49.094c0,27.113-21.98,49.093-49.093,49.093H1395.77v5.976h246.316
		C1665.702,1613.648,1682.896,1591.717,1682.896,1565.755z"/>
	<path style="fill:#FEE9CC;" d="M1669.616,1565.755c0-27.114-21.98-49.094-49.093-49.094H1395.77v98.186h224.753
		C1647.636,1614.848,1669.616,1592.868,1669.616,1565.755z"/>
	<rect x="1827.493" y="1546.364" style="fill:#F3954A;" width="159.649" height="38.782"/>
	<path style="fill:#4C5FA0;" d="M588.24,1098.264l0.009-0.048c17.956-20.091,34.685-26.612,47.169-26.612h263.934
		c22.024,0,38.541,20.15,34.219,41.745l-70.146,311.35h452.153h24.817c2.3,0,4.541-0.231,6.744-0.578
		c10.13-1.59,19.08-6.698,25.593-14.019c0.17-0.192,0.35-0.374,0.517-0.569c0.581-0.677,1.122-1.386,1.66-2.097
		c0.269-0.357,0.545-0.707,0.803-1.072c0.456-0.644,0.883-1.308,1.304-1.977c0.298-0.474,0.593-0.95,0.872-1.436
		c0.358-0.621,0.697-1.254,1.024-1.894c0.291-0.57,0.569-1.148,0.835-1.733c0.277-0.608,0.546-1.22,0.795-1.842
		c0.262-0.655,0.499-1.322,0.729-1.992c0.203-0.59,0.408-1.178,0.586-1.779c0.071-0.239,0.12-0.484,0.186-0.724
		c0.142-0.513,0.275-1.03,0.399-1.551c0.132-0.556,0.278-1.107,0.388-1.671c0.172-0.884,0.292-1.784,0.41-2.686
		c0.061-0.471,0.149-0.933,0.195-1.409c0.135-1.39,0.213-2.796,0.213-4.221l-96.484-691.811c0-5.972-1.21-11.661-3.399-16.836
		c-1.094-2.587-2.433-5.045-3.988-7.347c-0.777-1.151-1.609-2.262-2.49-3.33c-6.17-7.477-14.804-12.844-24.659-14.861
		c-2.815-0.576-5.73-0.879-8.716-0.879H160.108c-1.418,0-2.816,0.078-4.199,0.212c-0.518,0.05-1.024,0.144-1.537,0.212
		c-0.845,0.112-1.691,0.224-2.52,0.385c-0.636,0.124-1.257,0.285-1.882,0.436c-0.673,0.162-1.346,0.323-2.007,0.516
		c-0.703,0.207-1.392,0.443-2.08,0.683c-0.542,0.189-1.083,0.381-1.615,0.591c-0.75,0.297-1.488,0.616-2.217,0.953
		c-0.429,0.198-0.853,0.403-1.274,0.614c-0.786,0.396-1.563,0.807-2.321,1.248c-0.316,0.183-0.625,0.377-0.935,0.568
		c-0.82,0.505-1.632,1.025-2.415,1.583c-0.191,0.136-0.375,0.282-0.564,0.421c-0.867,0.638-1.721,1.293-2.537,1.992
		c-4.266,3.655-7.8,8.122-10.384,13.168l-0.048,0.1l0,0c-2.993,5.882-4.716,12.519-4.716,19.571l96.484,691.811
		c0,23.887,19.364,43.252,43.252,43.252h251.621l71.693-309.948C581.175,1108.414,584.146,1102.801,588.24,1098.264z"/>
	<path style="fill:#333E7A;" d="M135.105,654.384c0.783-0.558,1.594-1.077,2.415-1.583c0.311-0.192,0.62-0.385,0.935-0.568
		c0.758-0.441,1.535-0.853,2.321-1.248c0.421-0.212,0.845-0.416,1.274-0.614c0.729-0.337,1.467-0.656,2.217-0.953
		c0.532-0.21,1.073-0.401,1.615-0.591c0.688-0.241,1.377-0.477,2.08-0.683c0.66-0.194,1.334-0.353,2.007-0.516
		c0.626-0.151,1.247-0.312,1.882-0.436c0.829-0.161,1.675-0.271,2.52-0.385c0.514-0.068,1.019-0.162,1.537-0.212
		c1.383-0.134,2.781-0.212,4.199-0.212h1083.803c2.986,0,5.901,0.302,8.716,0.879c9.855,2.017,18.489,7.384,24.659,14.861
		c0.882,1.068,1.713,2.179,2.49,3.33c1.555,2.301,2.894,4.76,3.988,7.347c2.189,5.175,3.399,10.864,3.399,16.836l96.484,691.811
		c0,1.425-0.078,2.832-0.213,4.221c-0.046,0.475-0.133,0.938-0.195,1.409c-0.117,0.902-0.238,1.802-0.41,2.686
		c-0.11,0.565-0.256,1.115-0.388,1.671c-0.122,0.516-0.219,1.042-0.36,1.551c-0.068,0.244-0.153,0.481-0.225,0.724
		c-0.178,0.601-0.383,1.189-0.586,1.779c-0.23,0.671-0.467,1.337-0.729,1.992c-0.249,0.623-0.517,1.234-0.795,1.842
		c-0.266,0.584-0.543,1.162-0.835,1.733c-0.327,0.64-0.666,1.273-1.024,1.894c-0.28,0.486-0.574,0.962-0.872,1.436
		c-0.421,0.669-0.848,1.333-1.304,1.977c-0.258,0.365-0.533,0.715-0.803,1.072c-0.538,0.711-1.08,1.421-1.66,2.097
		c-0.167,0.195-0.346,0.377-0.517,0.569c-6.512,7.321-15.463,12.429-25.593,14.019l0,0l0.302,0.006
		c16.315,0,40.207-10.661,51.915-31.142c0.133-0.232,0.267-0.461,0.397-0.695c5.176-9.376,7.82-20.756,6.06-34.089l-0.484-3.467
		l-5.409-38.783l-5.107-36.618l-85.485-612.943c0-23.888-19.365-43.252-43.252-43.252H182.273
		c-16.037,0-34.592,15.281-50.269,33.659l0,0c0.816-0.699,1.67-1.354,2.537-1.992C134.731,654.666,134.914,654.52,135.105,654.384z"
		/>
	<path style="fill:#333E7A;" d="M899.352,1071.604H635.418c-12.484,0-29.213,6.521-47.169,26.612l-0.009,0.048
		c6.443-7.139,15.715-11.563,25.886-11.563H878.06c22.023,0,38.541,20.15,34.219,41.745l-114.315,492.377h185.91
		c-12.383-19.392-34.016-32.302-58.731-32.302h-98.627l36.908-163.823l70.146-311.35
		C937.893,1091.754,921.376,1071.604,899.352,1071.604z"/>
	<path style="fill:#5B71AD;" d="M797.964,1620.824l114.315-492.377c4.321-21.595-12.196-41.745-34.219-41.745H614.126
		c-10.171,0-19.443,4.423-25.886,11.563c-4.094,4.536-7.065,10.15-8.333,16.487l-71.693,309.948l-45.365,196.125H797.964z"/>
	<path style="fill:#E27B6D;" d="M1710.423,1065.685c-0.014,0.14-0.036,0.277-0.05,0.418c-0.135,1.371-1.357,2.373-2.728,2.238
		c-1.346-0.133-2.323-1.316-2.231-2.656h-49.253c0.082,0.49,0.177,0.961,0.258,1.453c0.224,1.359-0.698,2.643-2.057,2.866
		c-1.36,0.223-2.643-0.698-2.866-2.057c-0.126-0.765-0.274-1.5-0.402-2.261h-111.761l35.849,212.095h100.471h78.683h21.787
		l35.85-212.095H1710.423z"/>
	<path d="M1557.09,1098.113h237.126c1.377,0,2.495-1.117,2.495-2.495c0-1.378-1.117-2.494-2.495-2.494H1557.09
		c-1.377,0-2.494,1.116-2.494,2.494C1554.595,1096.996,1555.713,1098.113,1557.09,1098.113z"/>
	<path d="M1796.711,1108.825c0-1.378-1.117-2.495-2.495-2.495H1557.09c-1.377,0-2.494,1.117-2.494,2.495
		c0,1.377,1.117,2.495,2.494,2.495h237.126C1795.594,1111.319,1796.711,1110.202,1796.711,1108.825z"/>
	<path style="fill:#008E60;" d="M1616.254,949.263c-5.58,0.798-16.221,1.04-28.659,1.045c-19.893,0-44.126-0.669-57.41-1.02v0
		c-1.377-0.037-2.465-1.182-2.428-2.56c0.036-1.377,1.182-2.464,2.56-2.428c13.282,0.352,37.489,1.019,57.278,1.019
		c12.31,0.005,23.01-0.273,27.936-0.992c-5.203-11.914-10.754-23.314-16.6-34.272c-0.09,0.014-0.168,0.061-0.26,0.065
		c-22.082,0.998-44.185,1.498-66.289,1.498c-17.499,0-34.998-0.312-52.486-0.938l0.001,0c-1.377-0.049-2.453-1.206-2.404-2.582
		c0.049-1.377,1.205-2.453,2.582-2.404c17.428,0.624,34.867,0.935,52.307,0.935c21.248,0,42.496-0.488,63.725-1.413
		c-0.097-0.227-0.141-0.468-0.167-0.722c-7.136-12.977-14.688-25.319-22.543-37.174c-0.145,0.032-0.277,0.098-0.432,0.104
		c-34.493,1.341-67.194,3.686-101.267,3.687c-6.433,0-12.915-0.083-19.467-0.273h0.001c-1.378-0.04-2.462-1.189-2.422-2.566
		c0.04-1.377,1.188-2.461,2.566-2.421c6.499,0.188,12.932,0.271,19.322,0.271c33,0.001,64.882-2.211,98.529-3.57
		c-8.304-12.266-16.931-24.008-25.773-35.356c-0.342,0.231-0.723,0.409-1.164,0.445c-29.918,2.478-60.897,4.318-90.898,5.398v0
		c-1.377,0.049-2.533-1.026-2.583-2.403s1.026-2.533,2.403-2.583c29.296-1.054,59.524-2.845,88.782-5.239
		c-10.183-12.877-20.617-25.281-31.149-37.393c-13.227,2.326-26.304,3.779-39.861,3.779c-8.35,0-16.881-0.542-25.738-1.746l0,0.001
		c-1.365-0.186-2.322-1.443-2.136-2.808c0.186-1.366,1.443-2.322,2.808-2.136c8.632,1.174,16.932,1.701,25.066,1.701
		c12.187-0.001,24.012-1.232,35.995-3.214c-13.273-15.155-26.653-29.92-39.809-44.693l0,0c-0.916-1.029-0.826-2.606,0.203-3.522
		c1.029-0.916,2.606-0.826,3.522,0.203c9.174,10.298,18.479,20.613,27.795,31.078c-0.927-10.714-1.855-21.427-2.782-32.14v0
		c-0.119-1.373,0.898-2.582,2.27-2.701c1.373-0.119,2.581,0.897,2.701,2.27c1.085,12.529,2.169,25.058,3.255,37.588
		c0.03,0.345-0.014,0.68-0.115,0.989c11.466,12.957,22.907,26.196,34.117,39.959c0.086-10.446,0.288-20.874,0.288-31.521
		c0-11.45-0.272-23.158-1.292-35.436l0,0c-0.115-1.373,0.906-2.578,2.279-2.693c1.373-0.114,2.578,0.906,2.692,2.279
		c1.036,12.466,1.309,24.32,1.309,35.849c0,12.805-0.329,25.208-0.344,37.621c8.814,11.022,17.459,22.401,25.822,34.269
		c0.81-25.579,1.687-53.312,2.482-78.415v0c0.044-1.377,1.195-2.458,2.572-2.414c1.377,0.044,2.458,1.195,2.414,2.572
		c-0.864,27.322-1.828,57.782-2.695,85.163c8.294,12.122,16.276,24.771,23.849,38.059c1.946-24.428,3.428-48.898,4.269-73.389h0
		c0.047-1.377,1.201-2.455,2.578-2.407c1.377,0.047,2.455,1.201,2.407,2.578c-0.93,27.077-2.55,54.136-4.825,81.134
		c6.248,11.433,12.173,23.363,17.73,35.836c2.264-13.747,4.374-32.143,4.946-43.942l0,0.001c0.067-1.376,1.237-2.438,2.613-2.37
		c1.375,0.066,2.437,1.236,2.37,2.613c-0.705,14.373-3.546,37.732-6.307,51.855c-0.005,0.025-0.022,0.043-0.028,0.067
		c1.408,3.325,2.801,6.671,4.154,10.076c0.555-0.6,1.122-1.185,1.641-1.839c8.299-10.466,8.972-24.952,8.234-38.289
		c-2.359-42.611-15.582-84.577-38.077-120.843c-16.861-27.184-39.837-51.843-69.493-63.837
		c-34.221-13.839-81.191-10.782-85.482,32.128c-4.441,44.402-10.377,103.553,13.377,143.139
		c22.978,38.291,70.438,53.783,114.609,60.35c17.491,2.6,37.889,3.168,51.249-7.162c-1.64-4.179-3.321-8.302-5.044-12.359
		C1617.099,948.977,1616.715,949.196,1616.254,949.263z"/>
	<path style="fill:#008E60;" d="M1670.608,823.618c3.867,2.827,7.37,4.422,10.606,5.129c-0.113-12.981-0.256-25.965-0.429-38.932
		c-18.596-14.836-39.266-40.2-55.578-59.557h0c-0.888-1.054-0.753-2.627,0.301-3.515c1.054-0.887,2.628-0.753,3.515,0.301
		c15.349,18.242,34.537,41.582,51.67,56.156c-0.233-16.437-0.508-32.826-0.836-49.092c-0.474-0.113-0.93-0.32-1.282-0.709
		c-22.272-24.661-46.084-52.644-66.565-80.78v0c-0.811-1.114-0.565-2.675,0.548-3.485c1.114-0.811,2.674-0.565,3.485,0.548
		c19.547,26.855,42.213,53.63,63.666,77.505c-0.068-3.23-0.138-6.454-0.209-9.673c-0.146-0.441-0.134-0.903-0.029-1.351
		c-0.329-14.626-0.696-29.133-1.103-43.463c-0.756-0.039-1.487-0.378-1.943-1.054c-17.824-26.419-29.187-43.198-44.837-65.935l0,0
		c-0.782-1.135-0.495-2.688,0.64-3.469c1.135-0.781,2.688-0.495,3.469,0.64c14.924,21.681,26.022,38.053,42.452,62.4
		c-0.949-32.172-2.094-63.433-3.442-93.119l0,0c-0.063-1.376,1.002-2.542,2.379-2.605c1.376-0.063,2.542,1.002,2.605,2.378
		c1.117,24.587,2.095,50.242,2.939,76.599c18.232-20.509,30.698-36.64,45.702-52.592c0.943-1.003,2.523-1.052,3.526-0.108
		c1.003,0.944,1.051,2.522,0.107,3.526c-15.719,16.704-28.762,33.839-49.111,56.423c0.558,18.067,1.057,36.428,1.488,55.019
		c21.238-20.773,38.602-44.405,57.071-66.043c0.894-1.048,2.469-1.172,3.516-0.277c1.048,0.894,1.172,2.469,0.277,3.516
		c-19.25,22.534-37.514,47.696-60.714,69.632c0.348,15.605,0.65,31.341,0.908,47.154c17.069-15.274,39.586-42.503,53.541-58.767
		c0.897-1.045,2.472-1.165,3.517-0.268c1.045,0.897,1.164,2.472,0.267,3.518c-14.82,17.244-39.217,46.888-57.219,62.021
		c0.179,11.518,0.332,23.065,0.464,34.623c7.634-5.038,14.964-10.54,21.822-16.594c1.032-0.912,2.609-0.814,3.52,0.219
		c0.911,1.033,0.814,2.609-0.219,3.521c-7.732,6.825-15.988,13.054-24.674,18.615l0.001,0c-0.12,0.077-0.256,0.095-0.383,0.149
		c0.061,5.757,0.116,11.512,0.166,17.267c12.294-1.031,20.174-16.354,27.907-29.51c24.035-40.892,38.354-87.537,40.913-134.926
		c1.15-21.301-0.165-43.388-9.429-62.603c-9.264-19.215-27.876-35.034-49.188-35.95c-16.305-0.7-31.869,7.153-44.787,17.126
		c-29.228,22.563-48.852,57.793-50.561,94.677c-1.396,30.131,8.768,59.893,23.85,86.014
		C1636.362,783.758,1651.841,809.894,1670.608,823.618z"/>
	<path style="fill:#008E60;" d="M1908.77,812.402c-5.916-14.869-14.082-29.568-27.237-38.682
		c-18.173-12.592-43.211-12.06-63.342-2.919c-20.13,9.142-35.979,25.729-48.972,43.617
		c-30.097,41.437-55.569,102.715-47.817,155.033c1.054,7.112,3.268,12.597,6.392,16.726c2.11-4.47,4.321-8.893,6.675-13.248
		c-0.67-0.248-1.239-0.75-1.496-1.477c-3.901-11.036-6.603-16.091-10.626-36.677l0,0c-0.265-1.352,0.616-2.663,1.968-2.927
		c1.352-0.266,2.663,0.616,2.928,1.968c3.811,19.392,6.185,24.167,9.866,34.386c6.042-10.674,12.793-20.979,20.15-30.89
		c-0.002-0.02-0.015-0.035-0.017-0.055c-1.73-17.138-2.011-37.014-2.012-57.884c0-10.438,0.072-21.123,0.072-31.829h0
		c0-1.378,1.117-2.495,2.494-2.495c1.377,0,2.495,1.117,2.495,2.495c0,10.728-0.072,21.414-0.072,31.829
		c-0.001,18.678,0.289,36.37,1.564,51.976c1.502-1.927,3.005-3.854,4.552-5.749c7.99-9.791,16.198-19.422,24.549-28.933
		c-0.077-0.24-0.152-0.485-0.152-0.751c-0.003-54.87,4.28-71.599,6.881-104.24v0c0.11-1.373,1.312-2.398,2.685-2.289
		c1.373,0.109,2.398,1.312,2.288,2.685c-2.561,32.044-6.595,48.341-6.842,99.062c9.497-10.664,19.211-21.143,29.141-31.415
		c0.031-0.034,0.063-0.064,0.095-0.097c2.146-2.22,4.332-4.4,6.497-6.601c-0.038-0.222-0.088-0.443-0.062-0.678
		c2.791-25.689,8.262-50.005,10.658-80.475l0,0c0.108-1.373,1.309-2.399,2.682-2.291c1.373,0.108,2.399,1.309,2.291,2.683
		c-2.258,28.618-7.122,51.723-10.005,75.106c16.037-16.049,32.574-31.586,49.601-46.51l0,0c1.036-0.908,2.612-0.805,3.52,0.232
		c0.907,1.036,0.804,2.612-0.232,3.52c-19.64,17.216-38.616,35.263-56.925,53.972c25.365-1.044,50.999-4.231,76.552-5.806
		c1.375-0.084,2.558,0.962,2.643,2.337c0.084,1.375-0.962,2.558-2.337,2.643c-27.096,1.664-54.587,5.295-82.022,6.073
		c-11.846,12.276-23.354,24.872-34.576,37.704c34.138-1.581,79.744-3.879,116.117-8.705c1.365-0.182,2.619,0.779,2.8,2.144
		c0.181,1.365-0.779,2.62-2.144,2.801c-38.408,5.093-86.711,7.37-121.295,8.963c-6.273,7.27-12.482,14.59-18.545,22.021
		c-3.251,3.984-6.372,8.056-9.415,12.178c34.487-0.501,68.957-2.237,103.318-5.25c1.372-0.12,2.582,0.895,2.703,2.267
		c0.12,1.372-0.895,2.582-2.267,2.703c-35.487,3.112-71.09,4.892-106.71,5.335h0c-0.221,0.003-0.419-0.066-0.623-0.118
		c-6.287,8.878-12.064,18.058-17.277,27.516c7.42,1.087,15.19,1.466,23.481,1.465c11.222,0,23.351-0.617,36.662-0.767
		c1.378-0.016,2.507,1.089,2.522,2.467c0.015,1.378-1.089,2.506-2.467,2.522c-13.19,0.148-25.314,0.766-36.718,0.767
		c-9.073-0.001-17.684-0.417-26.008-1.777c-2.072,3.94-4.036,7.93-5.903,11.961c24.882,21.276,86.089-13.231,110.191-24.415
		c25.25-11.717,50.763-26.321,65.256-50.086C1925.508,885.082,1921.951,845.53,1908.77,812.402z"/>
	<path d="M1654.362,1070.004c1.359-0.224,2.281-1.507,2.057-2.866c-0.081-0.491-0.176-0.963-0.258-1.453
		c-6.753-40.489-16.991-76.197-29.737-108.269c-1.353-3.405-2.746-6.751-4.154-10.076c0.005-0.024,0.023-0.042,0.028-0.067
		c2.761-14.123,5.602-37.482,6.307-51.855c0.067-1.377-0.995-2.546-2.37-2.613c-1.376-0.067-2.546,0.994-2.613,2.37l0-0.001
		c-0.572,11.799-2.682,30.195-4.946,43.942c-5.557-12.473-11.482-24.403-17.73-35.836c2.276-26.998,3.896-54.057,4.825-81.134
		c0.047-1.377-1.031-2.531-2.407-2.578c-1.377-0.048-2.531,1.03-2.578,2.407h0c-0.841,24.49-2.323,48.96-4.269,73.389
		c-7.573-13.288-15.555-25.938-23.849-38.059c0.866-27.381,1.83-57.84,2.695-85.163c0.044-1.377-1.037-2.528-2.414-2.572
		c-1.377-0.044-2.528,1.037-2.572,2.414v0c-0.795,25.103-1.672,52.836-2.482,78.415c-8.363-11.868-17.008-23.247-25.822-34.269
		c0.014-12.413,0.344-24.815,0.344-37.621c0-11.529-0.273-23.383-1.309-35.849c-0.114-1.373-1.32-2.393-2.692-2.279
		c-1.373,0.114-2.394,1.32-2.279,2.693l0,0c1.02,12.278,1.292,23.985,1.292,35.436c0,10.647-0.203,21.075-0.288,31.521
		c-11.21-13.763-22.652-27.002-34.117-39.959c0.101-0.31,0.145-0.644,0.115-0.989c-1.085-12.529-2.17-25.059-3.255-37.588
		c-0.119-1.373-1.328-2.389-2.701-2.27c-1.372,0.119-2.389,1.328-2.27,2.701v0c0.927,10.713,1.855,21.426,2.782,32.14
		c-9.316-10.465-18.621-20.78-27.795-31.078c-0.917-1.029-2.493-1.12-3.522-0.203c-1.029,0.916-1.12,2.493-0.203,3.522l0,0
		c13.155,14.773,26.536,29.538,39.809,44.693c-11.983,1.982-23.809,3.214-35.995,3.214c-8.134-0.001-16.434-0.527-25.066-1.701
		c-1.365-0.186-2.622,0.771-2.808,2.136c-0.186,1.365,0.771,2.622,2.136,2.808l0-0.001c8.857,1.204,17.388,1.747,25.738,1.746
		c13.557,0,26.635-1.452,39.861-3.779c10.532,12.112,20.966,24.516,31.149,37.393c-29.258,2.394-59.486,4.185-88.782,5.239
		c-1.377,0.049-2.453,1.206-2.403,2.583s1.206,2.453,2.583,2.403v0c30.001-1.08,60.98-2.919,90.898-5.398
		c0.441-0.036,0.821-0.215,1.164-0.445c8.842,11.347,17.469,23.089,25.773,35.356c-33.648,1.359-65.529,3.57-98.529,3.57
		c-6.391,0-12.823-0.083-19.322-0.271c-1.378-0.04-2.526,1.044-2.566,2.421c-0.04,1.377,1.044,2.526,2.422,2.566h-0.001
		c6.552,0.19,13.033,0.273,19.467,0.273c34.073,0,66.774-2.346,101.267-3.687c0.154-0.006,0.286-0.072,0.432-0.104
		c7.855,11.855,15.407,24.197,22.543,37.174c0.026,0.254,0.07,0.495,0.167,0.722c-21.229,0.925-42.477,1.413-63.725,1.413
		c-17.44,0-34.879-0.312-52.307-0.935c-1.377-0.049-2.533,1.027-2.582,2.404c-0.049,1.377,1.027,2.533,2.404,2.582l-0.001,0
		c17.488,0.626,34.987,0.938,52.486,0.938c22.103,0,44.207-0.499,66.289-1.498c0.093-0.004,0.17-0.051,0.26-0.065
		c5.846,10.957,11.397,22.358,16.6,34.272c-4.926,0.719-15.625,0.998-27.936,0.992c-19.79,0-43.996-0.667-57.278-1.019
		c-1.377-0.036-2.523,1.051-2.56,2.428c-0.036,1.378,1.051,2.523,2.428,2.56v0c13.284,0.351,37.517,1.02,57.41,1.02
		c12.438-0.005,23.08-0.247,28.659-1.045c0.461-0.067,0.845-0.286,1.182-0.559c1.724,4.058,3.404,8.18,5.044,12.359
		c12.201,31.074,22.032,65.585,28.613,104.622c0.128,0.762,0.276,1.497,0.402,2.261
		C1651.719,1069.306,1653.002,1070.227,1654.362,1070.004z"/>
	<path d="M1707.645,1068.341c1.371,0.135,2.592-0.867,2.728-2.238c0.014-0.14,0.036-0.278,0.05-0.418
		c2.668-26.566,10.063-51.89,21.075-75.662c1.867-4.032,3.831-8.021,5.903-11.961c8.324,1.36,16.935,1.776,26.008,1.777
		c11.403-0.001,23.528-0.62,36.718-0.767c1.378-0.015,2.482-1.144,2.467-2.522c-0.015-1.378-1.144-2.482-2.522-2.467
		c-13.311,0.15-25.441,0.767-36.662,0.767c-8.291,0-16.061-0.379-23.481-1.465c5.213-9.458,10.99-18.638,17.277-27.516
		c0.204,0.051,0.403,0.121,0.623,0.118h0c35.62-0.443,71.223-2.223,106.71-5.335c1.372-0.12,2.387-1.33,2.267-2.703
		c-0.121-1.372-1.331-2.387-2.703-2.267c-34.36,3.013-68.831,4.749-103.318,5.25c3.043-4.121,6.164-8.194,9.415-12.178
		c6.063-7.43,12.272-14.751,18.545-22.021c34.583-1.593,82.887-3.87,121.295-8.963c1.365-0.181,2.325-1.435,2.144-2.801
		c-0.181-1.365-1.435-2.326-2.8-2.144c-36.373,4.825-81.979,7.123-116.117,8.705c11.222-12.832,22.73-25.428,34.576-37.704
		c27.435-0.777,54.926-4.409,82.022-6.073c1.375-0.085,2.421-1.268,2.337-2.643c-0.085-1.375-1.268-2.421-2.643-2.337
		c-25.553,1.575-51.187,4.762-76.552,5.806c18.31-18.708,37.285-36.756,56.925-53.972c1.036-0.908,1.139-2.484,0.232-3.52
		c-0.908-1.036-2.484-1.139-3.52-0.232l0,0c-17.027,14.924-33.564,30.461-49.601,46.51c2.883-23.383,7.747-46.488,10.005-75.106
		c0.108-1.373-0.917-2.574-2.291-2.683c-1.373-0.108-2.574,0.917-2.682,2.291l0,0c-2.396,30.469-7.867,54.786-10.658,80.475
		c-0.026,0.235,0.024,0.456,0.062,0.678c-2.166,2.201-4.351,4.381-6.497,6.601c-0.032,0.032-0.064,0.063-0.095,0.097
		c-9.929,10.272-19.644,20.751-29.141,31.415c0.247-50.721,4.281-67.019,6.842-99.062c0.109-1.373-0.916-2.575-2.288-2.685
		c-1.374-0.11-2.575,0.915-2.685,2.289v0c-2.601,32.641-6.884,49.37-6.881,104.24c0,0.266,0.074,0.511,0.152,0.751
		c-8.351,9.511-16.558,19.142-24.549,28.933c-1.547,1.895-3.049,3.822-4.552,5.749c-1.275-15.606-1.565-33.298-1.564-51.976
		c0-10.416,0.072-21.101,0.072-31.829c0-1.378-1.117-2.495-2.495-2.495c-1.377,0-2.494,1.117-2.494,2.495h0
		c0,10.706-0.072,21.391-0.072,31.829c0.001,20.87,0.282,40.746,2.012,57.884c0.002,0.02,0.014,0.035,0.017,0.055
		c-7.357,9.911-14.108,20.216-20.15,30.89c-3.681-10.219-6.055-14.995-9.866-34.386c-0.266-1.352-1.576-2.233-2.928-1.968
		c-1.352,0.265-2.233,1.576-1.968,2.927l0,0c4.023,20.586,6.725,25.642,10.626,36.677c0.257,0.726,0.826,1.228,1.496,1.477
		c-2.354,4.355-4.564,8.778-6.675,13.248c-11.738,24.86-19.629,51.453-22.386,79.437c-0.003,0.025,0.009,0.047,0.007,0.072
		C1705.322,1067.026,1706.299,1068.208,1707.645,1068.341z"/>
	<path d="M1686.423,811.679L1686.423,811.679c8.685-5.561,16.942-11.79,24.674-18.615c1.033-0.911,1.13-2.488,0.219-3.521
		c-0.911-1.033-2.488-1.131-3.52-0.219c-6.858,6.053-14.188,11.555-21.822,16.594c-0.132-11.558-0.285-23.106-0.464-34.623
		c18.002-15.133,42.399-44.777,57.219-62.021c0.897-1.046,0.778-2.62-0.267-3.518c-1.046-0.897-2.62-0.777-3.517,0.268
		c-13.955,16.264-36.472,43.492-53.541,58.767c-0.258-15.813-0.56-31.549-0.908-47.154c23.2-21.937,41.464-47.098,60.714-69.632
		c0.894-1.048,0.77-2.622-0.277-3.516c-1.048-0.895-2.622-0.771-3.516,0.277c-18.469,21.638-35.833,45.27-57.071,66.043
		c-0.431-18.591-0.929-36.952-1.488-55.019c20.349-22.584,33.392-39.719,49.111-56.423c0.944-1.004,0.896-2.582-0.107-3.526
		c-1.003-0.944-2.582-0.896-3.526,0.108c-15.004,15.952-27.47,32.082-45.702,52.592c-0.843-26.357-1.822-52.012-2.939-76.599
		c-0.062-1.377-1.229-2.441-2.605-2.378c-1.376,0.062-2.442,1.229-2.379,2.605l0,0c1.349,29.687,2.493,60.947,3.442,93.119
		c-16.43-24.347-27.528-40.719-42.452-62.4c-0.781-1.135-2.334-1.421-3.469-0.64c-1.135,0.781-1.422,2.334-0.64,3.469l0,0
		c15.65,22.737,27.013,39.516,44.837,65.935c0.456,0.676,1.187,1.015,1.943,1.054c0.408,14.33,0.774,28.836,1.103,43.463
		c-0.105,0.448-0.117,0.909,0.029,1.351c0.072,3.219,0.142,6.443,0.209,9.673c-21.453-23.876-44.119-50.651-63.666-77.505
		c-0.811-1.114-2.371-1.36-3.485-0.548c-1.114,0.811-1.36,2.371-0.548,3.485v0c20.481,28.136,44.293,56.119,66.565,80.78
		c0.352,0.389,0.808,0.597,1.282,0.709c0.328,16.265,0.604,32.655,0.836,49.092c-17.133-14.574-36.322-37.914-51.67-56.156
		c-0.888-1.054-2.462-1.189-3.515-0.301c-1.054,0.888-1.188,2.461-0.301,3.515h0c16.313,19.356,36.982,44.721,55.578,59.557
		c0.173,12.966,0.315,25.951,0.429,38.932c0.215,24.639,0.329,49.244,0.329,73.569c0,55.675-0.563,109.895-1.686,159.765
		c-0.031,1.377,1.06,2.519,2.438,2.55c1.377,0.031,2.519-1.06,2.55-2.438c1.125-49.915,1.687-104.169,1.687-159.878
		c0-24.211-0.113-48.698-0.326-73.221c-0.05-5.755-0.105-11.51-0.166-17.267C1686.167,811.774,1686.302,811.756,1686.423,811.679z"
		/>
	<path d="M2012.72,1620.824h-24.378h-346.255H1395.77H983.874h-185.91H462.849H168.731c-1.378,0-2.494,1.117-2.494,2.495
		c0,1.378,1.117,2.495,2.494,2.495H2012.72c1.377,0,2.495-1.117,2.495-2.495C2015.214,1621.941,2014.097,1620.824,2012.72,1620.824z
		"/>
</g>
</svg>
